<svg width="57" height="55" viewBox="0 0 57 55" fill="none" xmlns="http://www.w3.org/2000/svg">
    <path d="M9.25074 9.14767C9.25074 9.14767 9.95103 8.15054 10.2415 7.7088C10.5319 7.26706 9.4896 6.22342 9.08517 5.89277C8.68074 5.56211 8.04288 5.72744 8.04288 5.72744C2.95357 7.87413 0.407559 12.2786 0.0601291 13.1595C-0.287301 14.0404 0.94499 15.0013 1.85428 15.4715C2.27228 15.6885 2.93729 15.208 3.34714 14.8515L3.48557 14.7172L3.7 14.5105L3.70272 14.5079L17.5484 27.6335L22.9172 22.5238L9.23174 9.16576L9.25074 9.14767Z" fill="#5865F2" />
    <path d="M41.9598 22.9936L42.6899 22.3323L49.2504 28.5166C49.2965 28.5553 49.3454 28.5708 49.3888 28.5708C49.5137 28.5708 49.6168 28.4623 49.6168 28.4623C49.6168 28.4623 56.8803 21.6038 56.9047 21.5805C57.1191 21.379 56.9047 21.268 56.9047 21.268L51.3024 15.9L51.2942 15.9077L50.5261 15.1921L50.955 14.7995L51.8724 14.9002L51.6987 13.7429L51.9294 13.5208L51.5847 11.852C50.3877 10.2375 47.1088 7.65161 47.1088 7.65161L45.3934 7.35712L45.2196 7.5767L43.9276 7.39329L44.0525 8.44209L44.1339 8.51959L43.7512 8.88641L41.634 6.91538C41.634 6.91538 29.3491 0.565734 28.695 0.271242C28.3258 0.108497 28.0544 0 27.7938 0C27.593 0 27.3976 0.0645816 27.1723 0.216994C26.6511 0.565734 26.9578 1.26838 26.9578 1.26838L34.5959 14.7013L36.124 16.1428L35.4699 16.7654L34.2484 16.6052L34.4357 17.7573L34.0829 18.0931L34.0204 18.0337C33.9634 17.9795 33.8847 17.9511 33.8087 17.9511C33.7327 17.9511 33.6567 17.9795 33.597 18.0337C33.4803 18.1448 33.4803 18.3256 33.597 18.4367L33.6594 18.4961L33.4912 18.6589L33.4477 18.615C33.388 18.5607 33.312 18.5323 33.236 18.5323C33.1573 18.5323 33.0813 18.5607 33.0243 18.615C32.9076 18.726 32.9076 18.9069 33.0243 19.018L33.0704 19.0619L29.8567 22.1359L29.7834 22.0662C29.7237 22.0119 29.6477 21.9835 29.5717 21.9835C29.4957 21.9835 29.4197 22.0119 29.36 22.0662C29.2433 22.1773 29.2433 22.3581 29.36 22.4692L29.436 22.5389L29.265 22.7017L29.208 22.65C29.151 22.5932 29.0723 22.5648 28.999 22.5648C28.9203 22.5648 28.8443 22.5932 28.7846 22.65C28.6706 22.7611 28.6706 22.9393 28.7846 23.0504L28.8416 23.1047L28.4236 23.5077L28.3666 24.0191L28.5864 24.2335L28.581 24.2361L28.315 24.4945L10.9733 40.9963L10.748 40.8181L10.0288 40.9162L9.62161 41.3089L9.59447 41.2831C9.53475 41.2262 9.45875 41.1978 9.38275 41.1978C9.30675 41.1978 9.22804 41.2262 9.17104 41.2831C9.05432 41.3941 9.05432 41.5724 9.17104 41.6835L9.20361 41.7145L9.03532 41.8798L9.01904 41.8643C8.96204 41.8075 8.88332 41.779 8.80732 41.779C8.73132 41.779 8.65532 41.8075 8.59561 41.8643C8.48161 41.9754 8.48161 42.1536 8.59561 42.2647L8.61461 42.2854L5.44159 45.3569L5.37645 45.2949C5.31673 45.238 5.24345 45.2122 5.16473 45.2122C5.08873 45.2122 5.01273 45.238 4.95302 45.2949C4.8363 45.4059 4.8363 45.5868 4.95302 45.6978L5.02359 45.7624L4.8553 45.9252L4.80373 45.8761C4.74402 45.8218 4.66802 45.7934 4.5893 45.7934C4.51602 45.7934 4.4373 45.8218 4.3803 45.8761C4.26359 45.9872 4.26359 46.168 4.3803 46.2791L4.43459 46.3333L4.19844 46.5632L2.96887 46.354L3.06115 47.6611L2.67301 48.0383L3.00958 49.8001C3.00958 49.8001 3.5253 51.3345 4.58659 52.3523C5.61531 53.3391 7.18417 53.8119 7.25203 53.8609L9.02447 54.1554L9.46147 53.7473L10.6829 53.9359L10.482 52.7863L10.8539 52.4402L11.0249 52.6029C11.0819 52.6571 11.1579 52.6856 11.2339 52.6856C11.3099 52.6856 11.3886 52.6571 11.4456 52.6029C11.5623 52.4892 11.5623 52.311 11.4456 52.1999L11.2773 52.0397L11.451 51.8796L11.5976 52.0191C11.6546 52.0759 11.7333 52.1043 11.8093 52.1043C11.8853 52.1043 11.9613 52.0759 12.0211 52.0191C12.1378 51.908 12.1378 51.7298 12.0211 51.6187L11.8772 51.4792L15.0991 48.4542L15.2402 48.5885C15.2972 48.6453 15.3759 48.6712 15.4519 48.6712C15.5279 48.6712 15.6039 48.6453 15.6636 48.5885C15.7776 48.4774 15.7776 48.2966 15.6636 48.1855L15.5252 48.0564L15.6962 47.8936L15.8156 48.0073C15.8726 48.0615 15.9486 48.0899 16.0246 48.0899C16.1034 48.0899 16.1794 48.0615 16.2364 48.0073C16.3531 47.8962 16.3531 47.7154 16.2364 47.6043L16.1196 47.4932L16.4806 47.1574L16.6109 46.4212L16.4182 46.2377L16.4209 46.2352L16.7711 45.9045L33.996 29.506L33.9879 29.4905L34.3244 29.8211L34.8646 29.7643L35.3504 29.2993L35.4292 29.3742C35.4889 29.4285 35.5649 29.4569 35.6409 29.4569C35.7169 29.4569 35.7956 29.4285 35.8526 29.3742C35.9693 29.2632 35.9693 29.0823 35.8526 28.9712L35.7739 28.8963L35.9449 28.7362L36.0046 28.793C36.0616 28.8472 36.1376 28.8757 36.2163 28.8757C36.2923 28.8757 36.3683 28.8472 36.4253 28.793C36.542 28.6819 36.542 28.5011 36.4253 28.39L36.3656 28.3306L39.5848 25.2617L39.6689 25.3418C39.7259 25.396 39.8019 25.4244 39.8779 25.4244C39.9566 25.4244 40.0326 25.396 40.0896 25.3418C40.2063 25.2307 40.2063 25.0499 40.0896 24.9388L40.0055 24.8587L40.1765 24.696L40.2416 24.7605C40.3013 24.8148 40.3773 24.8432 40.4533 24.8432C40.5293 24.8432 40.6053 24.8148 40.665 24.7605C40.7818 24.6469 40.7818 24.4686 40.665 24.3575L40.5999 24.293L40.9582 23.952L42.1552 24.1302L41.9598 22.9936Z" fill="#5865F2" />
    <path d="M44.352 41.5283L36.7167 36.0208L35.3568 34.6878L30.0884 39.7019L31.4129 40.9057L36.3883 48.0071L43.098 55L50.831 48.1337L44.352 41.5283Z" fill="#5865F2" />
</svg>
    